<svg xmlns="http://www.w3.org/2000/svg" version="1.1" xmlns:xlink="http://www.w3.org/1999/xlink" width="512" height="512"><svg xmlns="http://www.w3.org/2000/svg" xmlns:xlink="http://www.w3.org/1999/xlink" width="512" zoomAndPan="magnify" viewBox="0 0 384 383.999986" height="512" preserveAspectRatio="xMidYMid meet" version="1.0"><defs><clipPath id="SvgjsClipPath1007"><path d="M 1 0.359375 L 353.441406 0.359375 L 353.441406 352.441406 L 1 352.441406 Z M 1 0.359375 " clip-rule="nonzero"></path></clipPath><clipPath id="SvgjsClipPath1006"><rect x="0" width="354" y="0" height="353"></rect></clipPath><clipPath id="SvgjsClipPath1005"><path d="M 25.789062 175 L 217 175 L 217 373.339844 L 25.789062 373.339844 Z M 25.789062 175 " clip-rule="nonzero"></path></clipPath><clipPath id="SvgjsClipPath1004"><path d="M 210 10.605469 L 370.503906 10.605469 L 370.503906 179 L 210 179 Z M 210 10.605469 " clip-rule="nonzero"></path></clipPath></defs><g transform="matrix(1, 0, 0, 1, 14, 15)"><g clip-path="url(#5fc1ee25b4)"><g clip-path="url(#40d1654bde)"><path fill="#f3f4f6" d="M 331.789062 330.789062 C 337.78125 324.796875 337.785156 315.078125 331.789062 309.082031 C 325.796875 303.085938 316.074219 303.085938 310.082031 309.078125 C 304.085938 315.078125 304.085938 324.796875 310.082031 330.789062 C 316.078125 336.785156 325.796875 336.785156 331.789062 330.789062 Z M 22.199219 121.167969 C 4.738281 103.710938 -1.679688 79.386719 2.949219 56.882812 C 3.617188 53.628906 7.652344 52.4375 10.003906 54.785156 L 42.238281 87.019531 C 46.132812 90.917969 52.453125 90.917969 56.347656 87.019531 L 72.183594 71.1875 L 88.023438 55.347656 C 91.917969 51.449219 91.917969 45.132812 88.023438 41.234375 L 55.789062 9 C 53.4375 6.652344 54.632812 2.617188 57.886719 1.949219 C 80.386719 -2.675781 104.710938 3.738281 122.167969 21.199219 C 136.0625 35.09375 142.964844 53.335938 142.871094 71.550781 C 142.753906 94.34375 152.191406 116.148438 168.769531 131.796875 L 342.492188 295.78125 C 342.945312 296.1875 343.390625 296.605469 343.828125 297.042969 C 356.472656 309.683594 356.472656 330.1875 343.828125 342.828125 C 331.1875 355.472656 310.683594 355.472656 298.042969 342.828125 C 297.605469 342.394531 297.1875 341.945312 296.78125 341.492188 L 132.800781 167.769531 C 117.148438 151.195312 95.34375 141.753906 72.550781 141.871094 C 54.335938 141.964844 36.09375 135.0625 22.199219 121.167969 " fill-opacity="1" fill-rule="nonzero"></path></g></g></g><path fill="#22d3ee" d="M 231.878906 209.929688 L 240.753906 200.503906 C 242.367188 198.808594 242.285156 196.113281 240.585938 194.503906 L 227.710938 182.410156 L 206.871094 162.796875 L 193.996094 150.691406 C 192.296875 149.089844 189.625 149.171875 188.046875 150.902344 L 179.152344 160.328125 C 177.566406 162.042969 177.632812 164.6875 179.332031 166.285156 L 225.917969 210.125 C 227.609375 211.726562 230.285156 211.640625 231.878906 209.929688 " fill-opacity="1" fill-rule="nonzero"></path><g clip-path="url(#6e0525590e)"><path fill="#22d3ee" d="M 216.644531 209.480469 L 180.539062 175.507812 C 171.875 183.878906 157.71875 196.511719 145.660156 201.792969 C 132.277344 207.59375 119.769531 221.449219 103.898438 238.964844 L 100.675781 242.488281 C 83.464844 261.480469 30.4375 317.152344 29.945312 317.691406 C 29.765625 317.851562 25.640625 322.113281 25.792969 329.828125 C 25.945312 338.777344 31.515625 348.464844 42.285156 358.597656 C 53.085938 368.765625 63.082031 373.734375 72.027344 373.316406 C 79.738281 372.988281 83.71875 368.636719 83.875 368.515625 C 84.378906 367.933594 136.746094 311.613281 154.636719 293.25 L 158.015625 289.800781 C 174.527344 272.929688 187.550781 259.589844 192.53125 245.878906 C 197.019531 233.539062 208.777344 218.628906 216.644531 209.480469 " fill-opacity="1" fill-rule="nonzero"></path></g><g clip-path="url(#b3c370a7e0)"><path fill="#22d3ee" d="M 327.214844 39.433594 C 326.113281 42.632812 325.039062 45.664062 320.691406 50.421875 C 313.761719 57.976562 240.535156 135.851562 225.128906 152.003906 C 222.945312 154.289062 221.4375 154.828125 219.535156 155.316406 L 210.015625 157.671875 L 210.917969 158.515625 L 231.78125 178.125 L 232.652344 178.941406 L 234.417969 169.339844 C 234.792969 167.390625 235.226562 165.851562 237.375 163.523438 C 252.722656 147.03125 325.933594 69.160156 332.945312 61.941406 C 337.414062 57.289062 340.363281 56.058594 343.484375 54.746094 C 345.71875 53.796875 348.035156 52.820312 350.820312 50.75 C 357.472656 45.792969 368.824219 27.566406 370.085938 25.488281 C 370.785156 24.386719 370.582031 22.972656 369.636719 22.082031 L 358.246094 11.359375 C 357.300781 10.457031 355.84375 10.359375 354.800781 11.09375 C 352.8125 12.519531 335.324219 24.949219 330.765625 31.878906 C 328.84375 34.792969 328.011719 37.144531 327.214844 39.433594 " fill-opacity="1" fill-rule="nonzero"></path></g></svg><style>@media (prefers-color-scheme: light) { :root { filter: none; } }
@media (prefers-color-scheme: dark) { :root { filter: none; } }
</style></svg>